<mxfile host="app.diagrams.net" agent="Mozilla/5.0 (Windows NT 10.0; Win64; x64) AppleWebKit/537.36 (KHTML, like Gecko) Chrome/132.0.0.0 Safari/537.36" version="26.0.10">
  <diagram name="1 oldal" id="JxdVVfeQMgYU71d2-C_2">
    <mxGraphModel dx="2049" dy="1240" grid="1" gridSize="10" guides="1" tooltips="1" connect="1" arrows="1" fold="1" page="1" pageScale="1" pageWidth="827" pageHeight="1169" math="0" shadow="0">
      <root>
        <mxCell id="0" />
        <mxCell id="1" parent="0" />
        <mxCell id="qEHKhw5j-pWFp560sp4X-1" value="Vásárló" style="shape=umlActor;verticalLabelPosition=bottom;verticalAlign=top;html=1;outlineConnect=0;" vertex="1" parent="1">
          <mxGeometry x="100" y="390" width="30" height="60" as="geometry" />
        </mxCell>
        <mxCell id="qEHKhw5j-pWFp560sp4X-2" value="Adminisztrátor" style="shape=umlActor;verticalLabelPosition=bottom;verticalAlign=top;html=1;outlineConnect=0;" vertex="1" parent="1">
          <mxGeometry x="640" y="390" width="30" height="60" as="geometry" />
        </mxCell>
        <mxCell id="qEHKhw5j-pWFp560sp4X-5" value="" style="rounded=0;whiteSpace=wrap;html=1;" vertex="1" parent="1">
          <mxGeometry x="180" y="10" width="430" height="660" as="geometry" />
        </mxCell>
        <mxCell id="qEHKhw5j-pWFp560sp4X-7" value="Áruk kezelése" style="text;html=1;align=center;verticalAlign=middle;whiteSpace=wrap;rounded=0;" vertex="1" parent="1">
          <mxGeometry x="347.5" y="20" width="95" height="30" as="geometry" />
        </mxCell>
        <mxCell id="qEHKhw5j-pWFp560sp4X-8" value="" style="ellipse;whiteSpace=wrap;html=1;fillColor=#fff2cc;strokeColor=#d6b656;" vertex="1" parent="1">
          <mxGeometry x="310" y="70" width="180" height="90" as="geometry" />
        </mxCell>
        <mxCell id="qEHKhw5j-pWFp560sp4X-9" value="" style="ellipse;whiteSpace=wrap;html=1;fillColor=#fff2cc;strokeColor=#d6b656;" vertex="1" parent="1">
          <mxGeometry x="310" y="170" width="180" height="90" as="geometry" />
        </mxCell>
        <mxCell id="qEHKhw5j-pWFp560sp4X-10" value="" style="ellipse;whiteSpace=wrap;html=1;fillColor=#fff2cc;strokeColor=#d6b656;" vertex="1" parent="1">
          <mxGeometry x="310" y="270" width="180" height="90" as="geometry" />
        </mxCell>
        <mxCell id="qEHKhw5j-pWFp560sp4X-11" value="" style="ellipse;whiteSpace=wrap;html=1;fillColor=#fff2cc;strokeColor=#d6b656;" vertex="1" parent="1">
          <mxGeometry x="305" y="370" width="180" height="90" as="geometry" />
        </mxCell>
        <mxCell id="qEHKhw5j-pWFp560sp4X-12" value="" style="ellipse;whiteSpace=wrap;html=1;fillColor=#fff2cc;strokeColor=#d6b656;" vertex="1" parent="1">
          <mxGeometry x="305" y="470" width="180" height="90" as="geometry" />
        </mxCell>
        <mxCell id="qEHKhw5j-pWFp560sp4X-13" value="" style="ellipse;whiteSpace=wrap;html=1;fillColor=#fff2cc;strokeColor=#d6b656;" vertex="1" parent="1">
          <mxGeometry x="305" y="560" width="180" height="90" as="geometry" />
        </mxCell>
        <mxCell id="qEHKhw5j-pWFp560sp4X-15" value="UC_P_List Áruk listázása" style="text;html=1;align=center;verticalAlign=middle;whiteSpace=wrap;rounded=0;" vertex="1" parent="1">
          <mxGeometry x="337.5" y="100" width="125" height="30" as="geometry" />
        </mxCell>
        <mxCell id="qEHKhw5j-pWFp560sp4X-16" value="UC_P_Create Áru rögzítése" style="text;html=1;align=center;verticalAlign=middle;whiteSpace=wrap;rounded=0;" vertex="1" parent="1">
          <mxGeometry x="337.5" y="200" width="125" height="30" as="geometry" />
        </mxCell>
        <mxCell id="qEHKhw5j-pWFp560sp4X-17" value="UC_P_Read Áru megtekintése" style="text;html=1;align=center;verticalAlign=middle;whiteSpace=wrap;rounded=0;" vertex="1" parent="1">
          <mxGeometry x="337.5" y="300" width="125" height="30" as="geometry" />
        </mxCell>
        <mxCell id="qEHKhw5j-pWFp560sp4X-18" value="UC_P_Update Áru módosítása" style="text;html=1;align=center;verticalAlign=middle;whiteSpace=wrap;rounded=0;" vertex="1" parent="1">
          <mxGeometry x="332.5" y="400" width="125" height="30" as="geometry" />
        </mxCell>
        <mxCell id="qEHKhw5j-pWFp560sp4X-19" value="UC_P_Delete Áru törlése" style="text;html=1;align=center;verticalAlign=middle;whiteSpace=wrap;rounded=0;" vertex="1" parent="1">
          <mxGeometry x="330" y="500" width="125" height="30" as="geometry" />
        </mxCell>
        <mxCell id="qEHKhw5j-pWFp560sp4X-20" value="UC_P_Patch Áru átnevezése vagy ár módosítása" style="text;html=1;align=center;verticalAlign=middle;whiteSpace=wrap;rounded=0;" vertex="1" parent="1">
          <mxGeometry x="330" y="590" width="125" height="30" as="geometry" />
        </mxCell>
        <mxCell id="qEHKhw5j-pWFp560sp4X-23" value="" style="endArrow=none;html=1;rounded=0;fontSize=12;startSize=8;endSize=8;curved=1;entryX=0;entryY=0.25;entryDx=0;entryDy=0;" edge="1" parent="1" target="qEHKhw5j-pWFp560sp4X-15">
          <mxGeometry width="50" height="50" relative="1" as="geometry">
            <mxPoint x="120" y="440" as="sourcePoint" />
            <mxPoint x="170" y="390" as="targetPoint" />
          </mxGeometry>
        </mxCell>
        <mxCell id="qEHKhw5j-pWFp560sp4X-24" value="" style="endArrow=none;html=1;rounded=0;fontSize=12;startSize=8;endSize=8;curved=1;entryX=1;entryY=0.25;entryDx=0;entryDy=0;" edge="1" parent="1" source="qEHKhw5j-pWFp560sp4X-2" target="qEHKhw5j-pWFp560sp4X-15">
          <mxGeometry width="50" height="50" relative="1" as="geometry">
            <mxPoint x="130" y="450" as="sourcePoint" />
            <mxPoint x="348" y="118" as="targetPoint" />
          </mxGeometry>
        </mxCell>
        <mxCell id="qEHKhw5j-pWFp560sp4X-25" value="" style="endArrow=none;html=1;rounded=0;fontSize=12;startSize=8;endSize=8;curved=1;entryX=1;entryY=0.25;entryDx=0;entryDy=0;" edge="1" parent="1" target="qEHKhw5j-pWFp560sp4X-16">
          <mxGeometry width="50" height="50" relative="1" as="geometry">
            <mxPoint x="650" y="406" as="sourcePoint" />
            <mxPoint x="473" y="118" as="targetPoint" />
          </mxGeometry>
        </mxCell>
        <mxCell id="qEHKhw5j-pWFp560sp4X-26" value="" style="endArrow=none;html=1;rounded=0;fontSize=12;startSize=8;endSize=8;curved=1;entryX=0;entryY=0;entryDx=0;entryDy=0;" edge="1" parent="1" target="qEHKhw5j-pWFp560sp4X-17">
          <mxGeometry width="50" height="50" relative="1" as="geometry">
            <mxPoint x="130" y="450" as="sourcePoint" />
            <mxPoint x="348" y="118" as="targetPoint" />
          </mxGeometry>
        </mxCell>
        <mxCell id="qEHKhw5j-pWFp560sp4X-27" value="" style="endArrow=none;html=1;rounded=0;fontSize=12;startSize=8;endSize=8;curved=1;entryX=1;entryY=0.25;entryDx=0;entryDy=0;" edge="1" parent="1" target="qEHKhw5j-pWFp560sp4X-17">
          <mxGeometry width="50" height="50" relative="1" as="geometry">
            <mxPoint x="660" y="416" as="sourcePoint" />
            <mxPoint x="473" y="218" as="targetPoint" />
          </mxGeometry>
        </mxCell>
        <mxCell id="qEHKhw5j-pWFp560sp4X-28" value="" style="endArrow=none;html=1;rounded=0;fontSize=12;startSize=8;endSize=8;curved=1;entryX=1;entryY=0;entryDx=0;entryDy=0;exitX=0.5;exitY=0.5;exitDx=0;exitDy=0;exitPerimeter=0;" edge="1" parent="1" source="qEHKhw5j-pWFp560sp4X-2" target="qEHKhw5j-pWFp560sp4X-18">
          <mxGeometry width="50" height="50" relative="1" as="geometry">
            <mxPoint x="670" y="426" as="sourcePoint" />
            <mxPoint x="473" y="318" as="targetPoint" />
          </mxGeometry>
        </mxCell>
        <mxCell id="qEHKhw5j-pWFp560sp4X-29" value="" style="endArrow=none;html=1;rounded=0;fontSize=12;startSize=8;endSize=8;curved=1;entryX=1;entryY=0;entryDx=0;entryDy=0;exitX=0.5;exitY=0.5;exitDx=0;exitDy=0;exitPerimeter=0;" edge="1" parent="1" source="qEHKhw5j-pWFp560sp4X-2" target="qEHKhw5j-pWFp560sp4X-19">
          <mxGeometry width="50" height="50" relative="1" as="geometry">
            <mxPoint x="665" y="430" as="sourcePoint" />
            <mxPoint x="468" y="410" as="targetPoint" />
          </mxGeometry>
        </mxCell>
        <mxCell id="qEHKhw5j-pWFp560sp4X-30" value="" style="endArrow=none;html=1;rounded=0;fontSize=12;startSize=8;endSize=8;curved=1;exitX=0.5;exitY=0.5;exitDx=0;exitDy=0;exitPerimeter=0;" edge="1" parent="1" source="qEHKhw5j-pWFp560sp4X-2" target="qEHKhw5j-pWFp560sp4X-13">
          <mxGeometry width="50" height="50" relative="1" as="geometry">
            <mxPoint x="665" y="430" as="sourcePoint" />
            <mxPoint x="465" y="510" as="targetPoint" />
          </mxGeometry>
        </mxCell>
        <mxCell id="qEHKhw5j-pWFp560sp4X-31" style="edgeStyle=none;curved=1;rounded=0;orthogonalLoop=1;jettySize=auto;html=1;exitX=0.5;exitY=1;exitDx=0;exitDy=0;fontSize=12;startSize=8;endSize=8;" edge="1" parent="1" source="qEHKhw5j-pWFp560sp4X-5" target="qEHKhw5j-pWFp560sp4X-5">
          <mxGeometry relative="1" as="geometry" />
        </mxCell>
      </root>
    </mxGraphModel>
  </diagram>
</mxfile>
